<svg width="32" height="32" viewBox="0 0 32 32" fill="none" xmlns="http://www.w3.org/2000/svg">
<path d="M14.5208 13.785C13.7008 14.3 13.2258 15.225 13.2758 16.19C13.3308 17.16 13.9108 18.02 14.7808 18.445C15.6558 18.865 16.6908 18.775 17.4808 18.215C18.3008 17.7 18.7758 16.775 18.7258 15.8101C18.6708 14.84 18.0908 13.98 17.2208 13.555C16.3458 13.135 15.3108 13.225 14.5208 13.785ZM21.6358 10.365C21.3758 10.105 21.0608 9.90005 20.7158 9.76505C19.8108 9.41005 17.8358 9.42505 16.5608 9.44005C16.3558 9.44005 16.1658 9.44505 16.0008 9.44505C15.8358 9.44505 15.6408 9.44505 15.4308 9.44005C14.1558 9.42505 12.1908 9.40505 11.2858 9.76505C10.9408 9.90005 10.6308 10.105 10.3658 10.365C10.1008 10.625 9.90078 10.94 9.76578 11.285C9.41078 12.19 9.43078 14.17 9.44078 15.445C9.44078 15.65 9.44578 15.84 9.44578 16C9.44578 16.16 9.44578 16.35 9.44078 16.555C9.43078 17.83 9.41078 19.81 9.76578 20.715C9.90078 21.06 10.1058 21.3701 10.3658 21.635C10.6258 21.9 10.9408 22.1 11.2858 22.2351C12.1908 22.59 14.1658 22.5751 15.4408 22.56C15.6458 22.56 15.8358 22.555 16.0008 22.555C16.1658 22.555 16.3608 22.555 16.5708 22.56C17.8458 22.5751 19.8108 22.595 20.7158 22.2351C21.0608 22.1 21.3708 21.8951 21.6358 21.635C21.9008 21.375 22.1008 21.06 22.2358 20.715C22.5958 19.815 22.5758 17.845 22.5608 16.565C22.5608 16.355 22.5558 16.16 22.5558 15.995C22.5558 15.83 22.5558 15.64 22.5608 15.425C22.5758 14.15 22.5958 12.18 22.2358 11.275C22.1008 10.93 21.8958 10.62 21.6358 10.355V10.365ZM18.2808 12.59C19.1858 13.195 19.8108 14.135 20.0258 15.2C20.2408 16.265 20.0158 17.375 19.4108 18.28C19.1108 18.73 18.7258 19.11 18.2808 19.41C17.8358 19.71 17.3308 19.915 16.8008 20.02C15.7358 20.23 14.6258 20.01 13.7208 19.405C12.8158 18.8 12.1908 17.86 11.9758 16.795C11.7608 15.73 11.9858 14.62 12.5858 13.715C13.1858 12.81 14.1308 12.185 15.1958 11.97C16.2608 11.755 17.3708 11.98 18.2758 12.58H18.2808V12.59ZM19.7408 12.525C19.5858 12.42 19.4608 12.27 19.3858 12.095C19.3108 11.92 19.2958 11.73 19.3308 11.54C19.3658 11.35 19.4608 11.185 19.5908 11.05C19.7208 10.915 19.8958 10.825 20.0808 10.79C20.2658 10.755 20.4608 10.77 20.6358 10.845C20.8108 10.92 20.9608 11.04 21.0658 11.195C21.1708 11.35 21.2258 11.535 21.2258 11.725C21.2258 11.85 21.2008 11.975 21.1558 12.09C21.1108 12.205 21.0358 12.31 20.9508 12.4C20.8658 12.49 20.7558 12.56 20.6408 12.61C20.5258 12.66 20.4008 12.685 20.2758 12.685C20.0858 12.685 19.9008 12.63 19.7458 12.525H19.7408ZM27.2008 8.00005C27.2008 6.23505 25.7658 4.80005 24.0008 4.80005H8.00078C6.23578 4.80005 4.80078 6.23505 4.80078 8.00005V24C4.80078 25.765 6.23578 27.2 8.00078 27.2H24.0008C25.7658 27.2 27.2008 25.765 27.2008 24V8.00005ZM22.6508 22.65C21.7158 23.585 20.5808 23.88 19.3008 23.945C17.9808 24.02 14.0208 24.02 12.7008 23.945C11.4208 23.88 10.2858 23.585 9.35078 22.65C8.41578 21.715 8.12078 20.58 8.06078 19.3C7.98578 17.98 7.98578 14.02 8.06078 12.7C8.12578 11.42 8.41578 10.285 9.35078 9.35005C10.2858 8.41505 11.4258 8.12005 12.7008 8.06005C14.0208 7.98505 17.9808 7.98505 19.3008 8.06005C20.5808 8.12505 21.7158 8.41505 22.6508 9.35005C23.5858 10.285 23.8808 11.42 23.9408 12.7C24.0158 14.015 24.0158 17.97 23.9408 19.295C23.8758 20.575 23.5858 21.71 22.6508 22.645V22.65Z" fill="white"/>
</svg>
