<svg width="32" height="32" viewBox="0 0 32 32" fill="none" xmlns="http://www.w3.org/2000/svg">
<path d="M25.6008 4.80005H6.39578C5.51578 4.80005 4.80078 5.52505 4.80078 6.41505V25.5851C4.80078 26.475 5.51578 27.2 6.39578 27.2H25.6008C26.4808 27.2 27.2008 26.475 27.2008 25.5851V6.41505C27.2008 5.52505 26.4808 4.80005 25.6008 4.80005ZM11.5708 24H8.25078V13.3101H11.5758V24H11.5708ZM9.91078 8.00005C10.9758 8.00005 11.8358 8.86005 11.8358 9.92505C11.8358 10.99 10.9758 11.85 9.91078 11.85C8.84578 11.85 7.98578 10.99 7.98578 9.92505C7.98578 8.86005 8.84578 8.00005 9.91078 8.00005ZM24.0158 24H20.6958V18.8C20.6958 17.56 20.6708 15.965 18.9708 15.965C17.2408 15.965 16.9758 17.315 16.9758 18.71V24H13.6558V13.3101H16.8408V14.77H16.8858C17.3308 13.93 18.4158 13.045 20.0308 13.045C23.3908 13.045 24.0158 15.26 24.0158 18.14V24Z" fill="white"/>
</svg>
