<svg width="24" height="24" viewBox="0 0 24 24" fill="none" xmlns="http://www.w3.org/2000/svg">
<path d="M5.40578 11.93C5.40578 13.175 5.75578 14.39 6.41578 15.4351L6.57078 15.6851L5.90578 18.115L8.40078 17.4601L8.64078 17.605C9.65078 18.205 10.8108 18.525 11.9958 18.525H12.0008C15.6308 18.525 18.6658 15.57 18.6658 11.9351C18.6658 10.175 17.9058 8.52005 16.6608 7.27505C15.4108 6.02505 13.7608 5.34005 12.0008 5.34005C8.36578 5.34005 5.41078 8.29505 5.40578 11.93ZM14.5408 15.7C13.9108 15.795 13.4208 15.745 12.1658 15.205C10.3258 14.41 9.07578 12.63 8.82078 12.27C8.80078 12.24 8.78578 12.225 8.78078 12.215C8.68078 12.085 7.97078 11.14 7.97078 10.165C7.97078 9.24505 8.42078 8.77005 8.63078 8.55005C8.64578 8.53505 8.65578 8.52505 8.66578 8.51005C8.84578 8.31005 9.06078 8.26005 9.19578 8.26005C9.32578 8.26005 9.46078 8.26005 9.57578 8.26505H9.61578C9.73078 8.26505 9.87578 8.26505 10.0208 8.60505C10.0808 8.75005 10.1708 8.97005 10.2658 9.19505C10.4308 9.59505 10.6008 10.01 10.6308 10.075C10.6808 10.175 10.7158 10.29 10.6458 10.42C10.4758 10.76 10.3008 10.94 10.1808 11.07C10.0258 11.23 9.95578 11.305 10.0658 11.5C10.8308 12.815 11.5958 13.27 12.7608 13.855C12.9608 13.955 13.0758 13.94 13.1908 13.805C13.3058 13.675 13.6858 13.225 13.8158 13.03C13.9458 12.83 14.0808 12.865 14.2608 12.93C14.4408 12.995 15.4158 13.475 15.6158 13.575C15.6558 13.595 15.6908 13.61 15.7208 13.625C15.8608 13.695 15.9558 13.74 15.9958 13.805C16.0408 13.9 16.0408 14.3 15.8758 14.76C15.7108 15.225 14.9208 15.645 14.5408 15.7ZM23.2008 4.00005C23.2008 2.23505 21.7658 0.800049 20.0008 0.800049H4.00078C2.23578 0.800049 0.800781 2.23505 0.800781 4.00005V20C0.800781 21.765 2.23578 23.2 4.00078 23.2H20.0008C21.7658 23.2 23.2008 21.765 23.2008 20V4.00005ZM8.20578 18.895L4.00078 20L5.12578 15.89C4.43078 14.69 4.06578 13.325 4.06578 11.925C4.07078 7.55505 7.62578 4.00005 11.9958 4.00005C14.1158 4.00005 16.1058 4.82505 17.6058 6.32505C19.1008 7.82505 20.0008 9.81505 20.0008 11.9351C20.0008 16.305 16.3658 19.8601 11.9958 19.8601C10.6658 19.8601 9.36078 19.525 8.20578 18.895Z" fill="white"/>
</svg>
