<svg width="32" height="32" viewBox="0 0 32 32" fill="none" xmlns="http://www.w3.org/2000/svg">
<path d="M29.0846 9.40502C28.7746 8.22002 27.8446 7.29002 26.6696 6.97502C24.5446 6.40002 16.0046 6.40002 16.0046 6.40002C16.0046 6.40002 7.46461 6.40002 5.33461 6.97502C4.15961 7.29002 3.23461 8.22002 2.91961 9.40502C2.34961 11.55 2.34961 16.02 2.34961 16.02C2.34961 16.02 2.34961 20.49 2.91961 22.635C3.23461 23.815 4.15961 24.71 5.33461 25.025C7.46461 25.6 16.0046 25.6 16.0046 25.6C16.0046 25.6 24.5446 25.6 26.6746 25.025C27.8496 24.71 28.7746 23.815 29.0896 22.635C29.6596 20.49 29.6596 16.02 29.6596 16.02C29.6596 16.02 29.6596 11.55 29.0896 9.40502H29.0846ZM13.2096 20.08V11.96L20.3446 16.02L13.2096 20.08Z" fill="white"/>
</svg>
